<?xml version="1.0" encoding="UTF-8"?>

<svg version="1.2" baseProfile="tiny" width="137.16mm" height="182.88mm" viewBox="0 0 13716 18288" preserveAspectRatio="xMidYMid" fill-rule="evenodd" stroke-width="28.222" stroke-linejoin="round" xmlns="http://www.w3.org/2000/svg" xmlns:xlink="http://www.w3.org/1999/xlink" xml:space="preserve">
 <g visibility="visible" id="MasterSlide_1_Default">
  <desc>Master slide
  </desc>
  <rect fill="none" stroke="none" x="0" y="0" width="13716" height="18288"/>
 </g>
 <g visibility="visible" id="Slide_1_page1">
  <g>
   <path fill="rgb(207,231,245)" stroke="none" d="M 1840,10541 L 1840,2631 4316,155 11747,155 11747,8064 9270,10541 1840,10541 Z"/>
   <path fill="none" stroke="rgb(128,128,128)" id="Drawing_1_0" stroke-linejoin="round" d="M 1840,10541 L 1840,2631 4316,155 11747,155 11747,8064 9270,10541 1840,10541 Z"/>
   <path fill="rgb(216,236,247)" stroke="none" d="M 1840,2631 L 4316,155 11747,155 9270,2631 1840,2631 Z"/>
   <path fill="none" stroke="rgb(128,128,128)" id="Drawing_1_1" stroke-linejoin="round" d="M 1840,2631 L 4316,155 11747,155 9270,2631 1840,2631 Z"/>
   <path fill="rgb(166,185,196)" stroke="none" d="M 9270,10541 L 9270,2631 11747,155 11747,8064 9270,10541 Z"/>
   <path fill="none" stroke="rgb(128,128,128)" id="Drawing_1_2" stroke-linejoin="round" d="M 9270,10541 L 9270,2631 11747,155 11747,8064 9270,10541 Z"/>
   <rect fill="none" stroke="none" x="1840" y="156" width="9907" height="10386"/>
  </g>
  <g>
   <path fill="none" stroke="rgb(0,0,0)" id="Drawing_2_0" stroke-width="102" stroke-linejoin="round" d="M 10795,5080 L 13462,5038"/>
  </g>
  <g>
   <path fill="none" stroke="rgb(0,0,0)" id="Drawing_3_0" stroke-width="102" stroke-linejoin="round" d="M 6604,10541 L 6604,15240"/>
  </g>
  <g>
   <path fill="none" stroke="rgb(0,0,0)" id="Drawing_4_0" stroke-width="102" stroke-linejoin="round" d="M 5012,15340 L 8314,15340"/>
  </g>
  <g>
   <path fill="none" stroke="rgb(0,0,0)" id="Drawing_5_0" stroke-width="102" stroke-linejoin="round" d="M 5847,15848 L 7625,15848"/>
  </g>
  <g>
   <path fill="none" stroke="rgb(0,0,0)" id="Drawing_6_0" stroke-width="102" stroke-linejoin="round" d="M 6201,16410 L 7217,16410"/>
  </g>
  <g>
   <path fill="none" stroke="rgb(0,0,0)" id="Drawing_7_0" stroke-width="102" stroke-linejoin="round" d="M 6355,16991 L 6963,16991"/>
  </g>
  <g>
   <path fill="none" stroke="rgb(0,0,0)" id="Drawing_8_0" stroke-width="102" stroke-linejoin="round" d="M 6604,14097 L 13462,14097"/>
  </g>
 </g>
</svg>