<?xml version="1.0" encoding="UTF-8"?>

<svg version="1.2" baseProfile="tiny" width="137.16mm" height="266.7mm" viewBox="0 0 13716 26670" preserveAspectRatio="xMidYMid" fill-rule="evenodd" stroke-width="28.222" stroke-linejoin="round" xmlns="http://www.w3.org/2000/svg" xmlns:xlink="http://www.w3.org/1999/xlink" xml:space="preserve">
 <g visibility="visible" id="MasterSlide_1_Default">
  <desc>Master slide
  </desc>
  <rect fill="none" stroke="none" x="0" y="0" width="13716" height="26670"/>
 </g>
 <g visibility="visible" id="Slide_1_page1">
  <g>
   <path fill="rgb(207,231,245)" stroke="none" d="M 156,21971 L 156,2860 2823,193 10825,193 10825,19303 8157,21971 156,21971 Z"/>
   <path fill="none" stroke="rgb(128,128,128)" id="Drawing_1_0" stroke-linejoin="round" d="M 156,21971 L 156,2860 2823,193 10825,193 10825,19303 8157,21971 156,21971 Z"/>
   <path fill="rgb(216,236,247)" stroke="none" d="M 156,2860 L 2823,193 10825,193 8157,2860 156,2860 Z"/>
   <path fill="none" stroke="rgb(128,128,128)" id="Drawing_1_1" stroke-linejoin="round" d="M 156,2860 L 2823,193 10825,193 8157,2860 156,2860 Z"/>
   <path fill="rgb(166,185,196)" stroke="none" d="M 8157,21971 L 8157,2860 10825,193 10825,19303 8157,21971 Z"/>
   <path fill="none" stroke="rgb(128,128,128)" id="Drawing_1_2" stroke-linejoin="round" d="M 8157,21971 L 8157,2860 10825,193 10825,19303 8157,21971 Z"/>
   <rect fill="none" stroke="none" x="156" y="194" width="10669" height="21778"/>
  </g>
  <g>
   <path fill="rgb(207,231,245)" stroke="none" d="M 9682,2784 C 10186,2813 10509,3896 10430,5285 10350,6674 9905,7713 9402,7684 8898,7655 8575,6572 8654,5183 8734,3794 9179,2755 9682,2784 Z"/>
   <path fill="none" stroke="rgb(128,128,128)" id="Drawing_2_0" stroke-linejoin="round" d="M 9682,2784 C 10186,2813 10509,3896 10430,5285 10350,6674 9905,7713 9402,7684 8898,7655 8575,6572 8654,5183 8734,3794 9179,2755 9682,2784 Z"/>
   <rect fill="none" stroke="none" x="8514" y="2733" width="2058" height="5003"/>
  </g>
  <g>
   <path fill="none" stroke="rgb(0,0,0)" id="Drawing_3_0" stroke-width="102" stroke-linejoin="round" d="M 8692,5009 L 12446,5080"/>
  </g>
  <g>
   <path fill="none" stroke="rgb(0,0,0)" id="Drawing_4_0" stroke-width="102" stroke-linejoin="round" d="M 4953,21931 L 4982,24402"/>
  </g>
  <g>
   <path fill="none" stroke="rgb(0,0,0)" id="Drawing_5_0" stroke-width="102" stroke-linejoin="round" d="M 3312,24440 L 6614,24440"/>
  </g>
  <g>
   <path fill="none" stroke="rgb(0,0,0)" id="Drawing_6_0" stroke-width="102" stroke-linejoin="round" d="M 4147,24948 L 5925,24948"/>
  </g>
  <g>
   <path fill="none" stroke="rgb(0,0,0)" id="Drawing_7_0" stroke-width="102" stroke-linejoin="round" d="M 4501,25510 L 5517,25510"/>
  </g>
  <g>
   <path fill="none" stroke="rgb(0,0,0)" id="Drawing_8_0" stroke-width="102" stroke-linejoin="round" d="M 4655,26091 L 5263,26091"/>
  </g>
  <g>
   <path fill="rgb(207,231,245)" stroke="none" d="M 9708,8384 C 10212,8413 10535,9496 10456,10885 10376,12274 9931,13313 9428,13284 8924,13255 8601,12172 8680,10783 8760,9394 9205,8355 9708,8384 Z"/>
   <path fill="none" stroke="rgb(128,128,128)" id="Drawing_9_0" stroke-linejoin="round" d="M 9708,8384 C 10212,8413 10535,9496 10456,10885 10376,12274 9931,13313 9428,13284 8924,13255 8601,12172 8680,10783 8760,9394 9205,8355 9708,8384 Z"/>
   <rect fill="none" stroke="none" x="8540" y="8333" width="2058" height="5003"/>
  </g>
  <g>
   <path fill="none" stroke="rgb(0,0,0)" id="Drawing_10_0" stroke-width="102" stroke-linejoin="round" d="M 8718,10609 L 13544,10609"/>
  </g>
  <g>
   <path fill="none" stroke="rgb(0,0,0)" id="Drawing_11_0" stroke-width="102" stroke-linejoin="round" d="M 4953,23610 L 13530,23680"/>
  </g>
  <g>
   <path fill="none" stroke="rgb(0,0,0)" id="Drawing_12_0" stroke-width="102" stroke-linejoin="round" d="M 12446,3556 L 13462,3556"/>
  </g>
  <g>
   <path fill="none" stroke="rgb(0,0,0)" id="Drawing_13_0" stroke-width="102" stroke-linejoin="round" d="M 12446,3556 L 12446,5080"/>
  </g>
  <g>
   <path fill="rgb(207,231,245)" stroke="none" d="M 9734,14084 C 10238,14113 10561,15196 10482,16585 10402,17974 9957,19013 9454,18984 8950,18955 8627,17872 8706,16483 8786,15094 9231,14055 9734,14084 Z"/>
   <path fill="none" stroke="rgb(128,128,128)" id="Drawing_14_0" stroke-linejoin="round" d="M 9734,14084 C 10238,14113 10561,15196 10482,16585 10402,17974 9957,19013 9454,18984 8950,18955 8627,17872 8706,16483 8786,15094 9231,14055 9734,14084 Z"/>
   <rect fill="none" stroke="none" x="8566" y="14033" width="2058" height="5003"/>
  </g>
  <g>
   <path fill="none" stroke="rgb(0,0,0)" id="Drawing_15_0" stroke-width="102" stroke-linejoin="round" d="M 8744,16309 L 13570,16309"/>
  </g>
 </g>
</svg>