<?xml version="1.0" encoding="UTF-8"?>

<svg version="1.2" baseProfile="tiny" width="137.16mm" height="182.88mm" viewBox="0 0 13716 18288" preserveAspectRatio="xMidYMid" fill-rule="evenodd" stroke-width="28.222" stroke-linejoin="round" xmlns="http://www.w3.org/2000/svg" xmlns:xlink="http://www.w3.org/1999/xlink" xml:space="preserve">
 <g visibility="visible" id="MasterSlide_1_Default">
  <desc>Master slide
  </desc>
  <rect fill="none" stroke="none" x="0" y="0" width="13716" height="18288"/>
 </g>
 <g visibility="visible" id="Slide_1_page1">
  <g>
   <path fill="rgb(207,231,245)" stroke="none" d="M 156,14770 L 156,2793 2823,126 10825,126 10825,12102 8157,14770 156,14770 Z"/>
   <path fill="none" stroke="rgb(128,128,128)" id="Drawing_1_0" stroke-linejoin="round" d="M 156,14770 L 156,2793 2823,126 10825,126 10825,12102 8157,14770 156,14770 Z"/>
   <path fill="rgb(216,236,247)" stroke="none" d="M 156,2793 L 2823,126 10825,126 8157,2793 156,2793 Z"/>
   <path fill="none" stroke="rgb(128,128,128)" id="Drawing_1_1" stroke-linejoin="round" d="M 156,2793 L 2823,126 10825,126 8157,2793 156,2793 Z"/>
   <path fill="rgb(166,185,196)" stroke="none" d="M 8157,14770 L 8157,2793 10825,126 10825,12102 8157,14770 Z"/>
   <path fill="none" stroke="rgb(128,128,128)" id="Drawing_1_2" stroke-linejoin="round" d="M 8157,14770 L 8157,2793 10825,126 10825,12102 8157,14770 Z"/>
   <rect fill="none" stroke="none" x="156" y="127" width="10669" height="14644"/>
  </g>
  <g>
   <path fill="rgb(207,231,245)" stroke="none" d="M 9682,2784 C 10186,2813 10509,3896 10430,5285 10350,6674 9905,7713 9402,7684 8898,7655 8575,6572 8654,5183 8734,3794 9179,2755 9682,2784 Z"/>
   <path fill="none" stroke="rgb(128,128,128)" id="Drawing_2_0" stroke-linejoin="round" d="M 9682,2784 C 10186,2813 10509,3896 10430,5285 10350,6674 9905,7713 9402,7684 8898,7655 8575,6572 8654,5183 8734,3794 9179,2755 9682,2784 Z"/>
   <rect fill="none" stroke="none" x="8514" y="2733" width="2058" height="5003"/>
  </g>
  <g>
   <path fill="none" stroke="rgb(0,0,0)" id="Drawing_3_0" stroke-width="102" stroke-linejoin="round" d="M 8636,5207 L 11557,5086"/>
  </g>
  <g>
   <path fill="none" stroke="rgb(0,0,0)" id="Drawing_4_0" stroke-width="102" stroke-linejoin="round" d="M 4982,14770 L 4953,16510"/>
  </g>
  <g>
   <path fill="none" stroke="rgb(0,0,0)" id="Drawing_5_0" stroke-width="102" stroke-linejoin="round" d="M 3312,16540 L 6614,16540"/>
  </g>
  <g>
   <path fill="none" stroke="rgb(0,0,0)" id="Drawing_6_0" stroke-width="102" stroke-linejoin="round" d="M 4147,17048 L 5925,17048"/>
  </g>
  <g>
   <path fill="none" stroke="rgb(0,0,0)" id="Drawing_7_0" stroke-width="102" stroke-linejoin="round" d="M 4501,17610 L 5517,17610"/>
  </g>
  <g>
   <path fill="none" stroke="rgb(0,0,0)" id="Drawing_8_0" stroke-width="102" stroke-linejoin="round" d="M 4655,18191 L 5263,18191"/>
  </g>
  <g>
   <path fill="rgb(207,231,245)" stroke="none" d="M 9743,9870 C 9941,9869 10094,10261 10096,10775 10098,11289 9947,11682 9749,11683 9551,11684 9399,11291 9397,10777 9395,10263 9545,9871 9743,9870 Z"/>
   <path fill="none" stroke="rgb(128,128,128)" id="Drawing_9_0" stroke-linejoin="round" d="M 9743,9870 C 9941,9869 10094,10261 10096,10775 10098,11289 9947,11682 9749,11683 9551,11684 9399,11291 9397,10777 9395,10263 9545,9871 9743,9870 Z"/>
   <rect fill="none" stroke="none" x="9394" y="9869" width="707" height="1817"/>
  </g>
  <g>
   <path fill="none" stroke="rgb(0,0,0)" id="Drawing_10_0" stroke-width="102" stroke-linejoin="round" d="M 9398,10795 L 11557,10795"/>
  </g>
  <g>
   <path fill="none" stroke="rgb(0,0,0)" id="Drawing_11_0" stroke-width="102" stroke-linejoin="round" d="M 11557,2794 L 11557,5080"/>
  </g>
  <g>
   <path fill="none" stroke="rgb(0,0,0)" id="Drawing_12_0" stroke-width="102" stroke-linejoin="round" d="M 11557,2794 L 13589,2794"/>
  </g>
  <g>
   <path fill="none" stroke="rgb(0,0,0)" id="Drawing_13_0" stroke-width="102" stroke-linejoin="round" d="M 4912,15640 L 13462,15621"/>
  </g>
  <g>
   <path fill="none" stroke="rgb(0,0,0)" id="Drawing_14_0" stroke-width="102" stroke-linejoin="round" d="M 11557,9271 L 11557,10780"/>
  </g>
  <g>
   <path fill="none" stroke="rgb(0,0,0)" id="Drawing_15_0" stroke-width="102" stroke-linejoin="round" d="M 11557,9271 L 13589,9271"/>
  </g>
 </g>
</svg>