<?xml version="1.0" encoding="UTF-8" standalone="no"?>
<svg
   xmlns:dc="http://purl.org/dc/elements/1.1/"
   xmlns:cc="http://creativecommons.org/ns#"
   xmlns:rdf="http://www.w3.org/1999/02/22-rdf-syntax-ns#"
   xmlns:svg="http://www.w3.org/2000/svg"
   xmlns="http://www.w3.org/2000/svg"
   xmlns:sodipodi="http://sodipodi.sourceforge.net/DTD/sodipodi-0.dtd"
   xmlns:inkscape="http://www.inkscape.org/namespaces/inkscape"
   width="3.125in"
   height="2.5in"
   viewBox="0 0 225 180"
   version="1.1"
   id="svg22"
   sodipodi:docname="inductor.svg"
   inkscape:version="0.92.4 (5da689c313, 2019-01-14)">
  <metadata
     id="metadata26">
    <rdf:RDF>
      <cc:Work
         rdf:about="">
        <dc:format>image/svg+xml</dc:format>
        <dc:type
           rdf:resource="http://purl.org/dc/dcmitype/StillImage" />
      </cc:Work>
    </rdf:RDF>
  </metadata>
  <sodipodi:namedview
     pagecolor="#ffffff"
     bordercolor="#666666"
     borderopacity="1"
     objecttolerance="10"
     gridtolerance="10"
     guidetolerance="10"
     inkscape:pageopacity="0"
     inkscape:pageshadow="2"
     inkscape:window-width="1224"
     inkscape:window-height="766"
     id="namedview24"
     showgrid="false"
     inkscape:zoom="0.95666667"
     inkscape:cx="19.860627"
     inkscape:cy="120"
     inkscape:window-x="461"
     inkscape:window-y="168"
     inkscape:window-maximized="0"
     inkscape:current-layer="svg22" />
  <title
     id="title2">Fig file converted by fig2lat</title>
  <desc
     id="desc4">http://dktools.sourceforge.net/fig2lat.html</desc>
  <defs
     id="defs8">
    <style
       type="text/css"
       id="style6"><![CDATA[
.sB {
fill: none;
stroke: #000000;
stroke-width: 0.9;
}
.sA {
fill: none;
stroke: #000000;
stroke-width: 0.9;
stroke-miterlimit: 20;
}
.sC {
fill: none;
stroke: #FFFFFF;
stroke-width: 0.9;
stroke-miterlimit: 20;
}
]]></style>
  </defs>
  <polyline
     points="37.8,90 5.4,90"
     class="sA"
     id="polyline10" />
  <polyline
     points="182.82,90 216,90"
     class="sA"
     id="polyline12" />
  <path
     d="M37.8,90 C37.2214,84.5185 38.5131,79.0023 41.4653,74.3476 C44.4176,69.6929 48.8569,66.1731 54.0621,64.3599 C59.2673,62.5467 64.9327,62.5467 70.1379,64.3599 C75.3431,66.1731 79.7824,69.6929 82.7347,74.3476 C85.6869,79.0023 86.9786,84.5185 86.4,90 "
     class="sB"
     id="path14" />
  <path
     d="M86.4,90 C85.8214,84.5185 87.1131,79.0023 90.0653,74.3476 C93.0176,69.6929 97.4569,66.1731 102.662,64.3599 C107.867,62.5467 113.533,62.5467 118.738,64.3599 C123.943,66.1731 128.382,69.6929 131.335,74.3476 C134.287,79.0023 135.579,84.5185 135,90 "
     class="sB"
     id="path16" />
  <path
     d="M135,90 C134.421,84.5185 135.713,79.0023 138.665,74.3476 C141.618,69.6929 146.057,66.1731 151.262,64.3599 C156.467,62.5467 162.133,62.5467 167.338,64.3599 C172.543,66.1731 176.982,69.6929 179.935,74.3476 C182.887,79.0023 184.179,84.5185 183.6,90 "
     class="sB"
     id="path18" />
  <rect
     x="5.4"
     y="9"
     width="210.6"
     height="162"
     class="sC"
     id="rect20" />
  <path
     style="fill:none;stroke:#000000;stroke-width:0.75px;stroke-linecap:butt;stroke-linejoin:miter;stroke-opacity:1"
     d="M 34.494773,105.52264 190.69065,63.67009"
     id="path4536"
     inkscape:connector-curvature="0" />
</svg>
