<?xml version="1.0" encoding="iso-8859-1" standalone="no"?>
<!DOCTYPE svg PUBLIC "-//W3C//DTD SVG 20010904//EN"
"http://www.w3.org/TR/2001/REC-SVG-20010904/DTD/svg10.dtd"
>
<svg width="5.375in" height="7.75in" viewBox="0 0 387 558"
xmlns="http://www.w3.org/2000/svg"
xmlns:xlink="http://www.w3.org/1999/xlink"
>
<title>Fig file converted by fig2lat</title>
<desc>http://dktools.sourceforge.net/fig2lat.html</desc>
<defs>
<style type="text/css"><![CDATA[
.sC {
fill: #000000;
fillrule: evenodd;
stroke: #000000;
stroke-width: 0.9;
}
.sB {
fill: none;
stroke: #000000;
stroke-width: 0.9;
}
.sA {
fill: none;
stroke: #000000;
stroke-width: 0.9;
stroke-miterlimit: 20;
}
.sD {
fill: none;
stroke: #FFFFFF;
stroke-width: 0.9;
stroke-miterlimit: 20;
}
]]></style>
</defs>
<polyline
points="149.94,141.3
5.4,141.3"
class="sA"
/>
<polyline
points="149.94,416.7
5.4,416.7"
class="sA"
/>
<polyline
points="149.94,141.3
149.94,148.26
149.94,155.1
149.94,162
149.94,168.84"
class="sA"
/>
<polyline
points="149.94,416.7
149.94,389.16"
class="sA"
/>
<polyline
points="377.58,141.3
219.3,141.3"
class="sA"
/>
<polyline
points="218.7,141.3
218.7,168.84"
class="sA"
/>
<polyline
points="377.58,416.7
219.3,416.7"
class="sA"
/>
<polyline
points="218.7,416.7
218.7,389.16"
class="sA"
/>
<path
d="M149.94,389.16
C142.636,389.16 135.631,386.258 130.466,381.094
C125.302,375.929 122.4,368.924 122.4,361.62
C122.4,354.316 125.302,347.311 130.466,342.146
C135.631,336.982 142.636,334.08 149.94,334.08
"
class="sB"
/>
<path
d="M149.94,334.08
C142.636,334.08 135.631,331.178 130.466,326.014
C125.302,320.849 122.4,313.844 122.4,306.54
C122.4,299.236 125.302,292.231 130.466,287.066
C135.631,281.902 142.636,279 149.94,279
"
class="sB"
/>
<path
d="M149.94,279
C142.636,279 135.631,276.098 130.466,270.934
C125.302,265.769 122.4,258.764 122.4,251.46
C122.4,244.156 125.302,237.151 130.466,231.986
C135.631,226.822 142.636,223.92 149.94,223.92
"
class="sB"
/>
<path
d="M149.94,223.92
C142.636,223.92 135.631,221.018 130.466,215.854
C125.302,210.689 122.4,203.684 122.4,196.38
C122.4,189.076 125.302,182.071 130.466,176.906
C135.631,171.742 142.636,168.84 149.94,168.84
"
class="sB"
/>
<path
d="M219.42,169.74
C226.724,169.74 233.729,172.642 238.894,177.806
C244.058,182.971 246.96,189.976 246.96,197.28
C246.96,204.584 244.058,211.589 238.894,216.754
C233.729,221.918 226.724,224.82 219.42,224.82
"
class="sB"
/>
<path
d="M219.42,224.82
C226.724,224.82 233.729,227.722 238.894,232.886
C244.058,238.051 246.96,245.056 246.96,252.36
C246.96,259.664 244.058,266.669 238.894,271.834
C233.729,276.998 226.724,279.9 219.42,279.9
"
class="sB"
/>
<path
d="M219.42,279.9
C226.724,279.9 233.729,282.802 238.894,287.966
C244.058,293.131 246.96,300.136 246.96,307.44
C246.96,314.744 244.058,321.749 238.894,326.914
C233.729,332.078 226.724,334.98 219.42,334.98
"
class="sB"
/>
<path
d="M219.42,334.98
C226.724,334.98 233.729,337.882 238.894,343.046
C244.058,348.211 246.96,355.216 246.96,362.52
C246.96,369.824 244.058,376.829 238.894,381.994
C233.729,387.158 226.724,390.06 219.42,390.06
"
class="sB"
/>
<ellipse
cx="86.4" cy="173.7" rx="6.84" ry="6.96"
class="sC"
/>
<ellipse
cx="280.8" cy="173.7" rx="6.84" ry="6.96"
class="sC"
/>
<rect
x="5.4" y="9" width="372.6" height="540"
class="sD"
/>
</svg>
