<?xml version="1.0" encoding="UTF-8"?>

<svg version="1.2" baseProfile="tiny" width="215.9mm" height="279.4mm" viewBox="0 0 21590 27940" preserveAspectRatio="xMidYMid" fill-rule="evenodd" stroke-width="28.222" stroke-linejoin="round" xmlns="http://www.w3.org/2000/svg" xmlns:xlink="http://www.w3.org/1999/xlink" xml:space="preserve">
 <g visibility="visible" id="MasterSlide_1_Default">
  <desc>Master slide
  </desc>
  <rect fill="none" stroke="none" x="0" y="0" width="21590" height="27940"/>
 </g>
 <g visibility="visible" id="Slide_1_page1">
  <g>
   <path fill="none" stroke="rgb(0,0,0)" id="Drawing_1_0" stroke-width="102" stroke-linejoin="round" d="M 0,13970 L 21590,13970"/>
  </g>
  <g>
   <path fill="rgb(207,231,245)" stroke="none" d="M 3020,22350 L 3020,9554 6989,5585 18896,5585 18896,18381 14927,22350 3020,22350 Z"/>
   <path fill="none" stroke="rgb(128,128,128)" id="Drawing_2_0" stroke-linejoin="round" d="M 3020,22350 L 3020,9554 6989,5585 18896,5585 18896,18381 14927,22350 3020,22350 Z"/>
   <path fill="rgb(216,236,247)" stroke="none" d="M 3020,9554 L 6989,5585 18896,5585 14927,9554 3020,9554 Z"/>
   <path fill="none" stroke="rgb(128,128,128)" id="Drawing_2_1" stroke-linejoin="round" d="M 3020,9554 L 6989,5585 18896,5585 14927,9554 3020,9554 Z"/>
   <path fill="rgb(166,185,196)" stroke="none" d="M 14927,22350 L 14927,9554 18896,5585 18896,18381 14927,22350 Z"/>
   <path fill="none" stroke="rgb(128,128,128)" id="Drawing_2_2" stroke-linejoin="round" d="M 14927,22350 L 14927,9554 18896,5585 18896,18381 14927,22350 Z"/>
   <rect fill="none" stroke="none" x="3021" y="5585" width="15876" height="16765"/>
  </g>
 </g>
</svg>